<svg viewBox="0 0 71 20" fill="none" xmlns="http://www.w3.org/2000/svg">
  <g clipPath="url(#clip0)">
    <path fillRule="evenodd" clipRule="evenodd"
      d="M29.1279 15.8086H29.0964C29.1106 15.8086 29.12 15.8243 29.1341 15.8259H29.1436L29.1279 15.8101V15.8086ZM29.1341 15.8259C28.988 15.8274 28.6201 15.9044 28.2319 15.9044C27.0057 15.9044 26.5813 15.3386 26.5813 14.5997V9.67803H29.0807C29.2222 9.67803 29.3322 9.55228 29.3322 9.37937V6.70708C29.3322 6.56561 29.2064 6.43986 29.0807 6.43986H26.5813V3.12308C26.5813 2.99733 26.5027 2.91873 26.3613 2.91873H22.9659C22.8244 2.91873 22.7458 2.99733 22.7458 3.12308V6.53417C22.7458 6.53417 21.0324 6.95859 20.9224 6.97431C20.7966 7.00575 20.718 7.11579 20.718 7.24154V9.37937C20.718 9.55228 20.8438 9.67803 20.9853 9.67803H22.7301V14.834C22.7301 18.6695 25.4024 19.0625 27.2258 19.0625C28.0589 19.0625 29.065 18.7952 29.2222 18.7166C29.3165 18.6852 29.3636 18.5752 29.3636 18.4651V16.1072C29.3658 16.0403 29.3438 15.9749 29.3016 15.923C29.2595 15.871 29.2 15.836 29.1341 15.8243V15.8259ZM66.3826 12.366C66.3826 9.52084 65.2351 9.14358 64.0247 9.26933C63.0815 9.33221 62.327 9.80379 62.327 9.80379V15.337C62.327 15.337 63.0972 15.8714 64.2448 15.9029C65.8638 15.95 66.3826 15.3684 66.3826 12.366ZM70.2024 12.1145C70.2024 17.5062 68.4575 19.0467 65.408 19.0467C62.83 19.0467 61.4467 17.742 61.4467 17.742C61.4467 17.742 61.3838 18.4651 61.3052 18.5594C61.2581 18.6538 61.1795 18.6852 61.0852 18.6852H58.7587C58.6015 18.6852 58.4601 18.5594 58.4601 18.418L58.4915 0.953821C58.4915 0.812347 58.6173 0.686593 58.7587 0.686593H62.1069C62.2484 0.686593 62.3742 0.812347 62.3742 0.953821V6.88C62.3742 6.88 63.6631 6.04687 65.5495 6.04687L65.5337 6.01544C67.4201 6.01544 70.2024 6.7228 70.2024 12.1145ZM56.4951 6.43986H53.1941C53.0212 6.43986 52.9269 6.56561 52.9269 6.73852V15.2898C52.9269 15.2898 52.0623 15.9029 50.8834 15.9029C49.7044 15.9029 49.3586 15.3684 49.3586 14.1895V6.7228C49.3586 6.58133 49.2328 6.45558 49.0914 6.45558H45.7274C45.586 6.45558 45.4602 6.58133 45.4602 6.7228V14.7554C45.4602 18.2136 47.3937 19.0782 50.0502 19.0782C52.2352 19.0782 54.0115 17.8678 54.0115 17.8678C54.0115 17.8678 54.0901 18.4808 54.1372 18.5752C54.1687 18.6538 54.2787 18.7166 54.3888 18.7166H56.4951C56.6681 18.7166 56.7624 18.5909 56.7624 18.4494L56.7938 6.70708C56.7938 6.56561 56.6681 6.43986 56.4951 6.43986ZM19.2404 6.42414H15.8922C15.7507 6.42414 15.625 6.56561 15.625 6.73852V18.2765C15.625 18.5909 15.8293 18.7009 16.0966 18.7009H19.1147C19.429 18.7009 19.5076 18.5594 19.5076 18.2765V6.69137C19.5076 6.54989 19.3819 6.42414 19.2404 6.42414ZM17.5899 1.11101C16.3795 1.11101 15.4206 2.06989 15.4206 3.28028C15.4206 4.49066 16.3795 5.44954 17.5899 5.44954C18.7688 5.44954 19.7277 4.49066 19.7277 3.28028C19.7277 2.06989 18.7688 1.11101 17.5899 1.11101ZM43.511 0.718032H40.1942C40.0528 0.718032 39.927 0.843786 39.927 0.98526V7.41445H34.7239V0.98526C34.7239 0.843786 34.5982 0.718032 34.4567 0.718032H31.1085C30.967 0.718032 30.8413 0.843786 30.8413 0.98526V18.4494C30.8413 18.5909 30.9827 18.7166 31.1085 18.7166H34.4567C34.5982 18.7166 34.7239 18.5909 34.7239 18.4494V10.9827H39.927L39.8956 18.4494C39.8956 18.5909 40.0213 18.7166 40.1628 18.7166H43.511C43.6525 18.7166 43.7782 18.5909 43.7782 18.4494V0.98526C43.7782 0.843786 43.6525 0.718032 43.511 0.718032ZM13.8487 8.45193V17.4748C13.8487 17.5377 13.833 17.6477 13.7544 17.6792C13.7544 17.6792 11.7895 19.0782 8.5513 19.0782C4.63719 19.0782 0 17.8521 0 9.77235C0 1.69263 4.05558 0.0263826 8.01684 0.0421019C11.4436 0.0421019 12.8269 0.812347 13.047 0.953821C13.1099 1.03242 13.1413 1.09529 13.1413 1.17389L12.4811 3.97193C12.4811 4.1134 12.3396 4.28631 12.1667 4.23915C11.6008 4.06624 10.752 3.72042 8.75565 3.72042C6.44491 3.72042 3.96126 4.38063 3.96126 9.58372C3.96126 14.7868 6.31916 15.3999 8.01684 15.3999C9.46302 15.3999 9.98175 15.2269 9.98175 15.2269V11.6115H7.67102C7.4981 11.6115 7.37235 11.4858 7.37235 11.3443V8.45193C7.37235 8.31045 7.4981 8.1847 7.67102 8.1847H13.55C13.7229 8.1847 13.8487 8.31045 13.8487 8.45193Z"
      fill="#212121" />
  </g>
  <defs>
    <clipPath id="clip0">
      <rect width="70.5263" height='20' fill="white" />
    </clipPath>
  </defs>
</svg>
