<svg viewBox="0 0 16 16" fill="none" xmlns="http://www.w3.org/2000/svg"><path d="M6.47741 0.80234C7.21712 -0.267446 8.78287 -0.267447 9.52259 0.802339V0.802339C9.97072 1.45043 10.7718 1.74544 11.5269 1.54042V1.54042C12.7731 1.20199 13.9726 2.22029 13.8596 3.52087V3.52087C13.7911 4.30877 14.2174 5.05577 14.926 5.38975V5.38975C16.0958 5.94104 16.3677 7.50115 15.4548 8.42397V8.42397C14.9018 8.98303 14.7538 9.83248 15.0845 10.5492V10.5492C15.6303 11.7322 14.8474 13.1042 13.5619 13.2174V13.2174C12.7831 13.286 12.13 13.8405 11.928 14.6046V14.6046C11.5945 15.8658 10.1232 16.4076 9.06644 15.6583V15.6583C8.42626 15.2044 7.57374 15.2044 6.93355 15.6583V15.6583C5.87682 16.4076 4.4055 15.8658 4.07202 14.6046V14.6046C3.87 13.8405 3.21693 13.286 2.43813 13.2174V13.2174C1.15259 13.1042 0.369719 11.7322 0.915544 10.5492V10.5492C1.24621 9.83248 1.09817 8.98303 0.545171 8.42397V8.42397C-0.367654 7.50115 -0.0957642 5.94104 1.07396 5.38975V5.38975C1.78259 5.05577 2.20886 4.30877 2.14041 3.52087V3.52087C2.02742 2.22029 3.22685 1.20199 4.47315 1.54042V1.54042C5.22817 1.74544 6.02928 1.45043 6.47741 0.80234V0.80234Z" fill="url(#paint0_linear)"></path><path fill-rule="evenodd" clip-rule="evenodd" d="M10.9929 4.75224C11.3138 4.93275 11.4276 5.33922 11.2471 5.66013L8.24708 10.9935C8.14099 11.1821 7.94996 11.3074 7.73472 11.3297C7.51948 11.352 7.3068 11.2685 7.16431 11.1056L4.83097 8.43896C4.58852 8.16187 4.6166 7.74069 4.89369 7.49824C5.17078 7.25578 5.59195 7.28386 5.83441 7.56095L7.54707 9.51828L10.085 5.00645C10.2655 4.68554 10.672 4.57173 10.9929 4.75224Z" fill="white"></path><defs><linearGradient id="paint0_linear" x1="8" y1="0" x2="8" y2="16" gradientUnits="userSpaceOnUse"><stop stop-color="#27AE60"></stop><stop offset="1" stop-color="#1E874B"></stop></linearGradient></defs></svg>
