<svg width="306" height="138" viewBox="0 0 306 138" fill="none" xmlns="http://www.w3.org/2000/svg">
<path d="M16.5043 32.0345C18.329 29.2366 20.6099 27.0469 23.347 25.4655C26.0841 23.8232 29.1253 23.0021 32.4707 23.0021V39.5159H28.1826C24.2898 39.5159 21.3702 40.3675 19.4239 42.0705C17.4775 43.7128 16.5043 46.6324 16.5043 50.8292V74.4595H0.902832V23.5495H16.5043V32.0345Z" fill="white"/>
<path d="M66.2952 75.1894C61.3076 75.1894 56.8066 74.125 52.7922 71.9961C48.8386 69.8673 45.7062 66.8261 43.3948 62.8725C41.1443 58.9189 40.0191 54.2962 40.0191 49.0045C40.0191 43.7736 41.1747 39.1814 43.4861 35.2278C45.7974 31.2134 48.9603 28.1418 52.9747 26.0129C56.9891 23.884 61.4901 22.8196 66.4777 22.8196C71.4653 22.8196 75.9663 23.884 79.9807 26.0129C83.9951 28.1418 87.158 31.2134 89.4693 35.2278C91.7806 39.1814 92.9363 43.7736 92.9363 49.0045C92.9363 54.2354 91.7502 58.8581 89.3781 62.8725C87.0667 66.8261 83.8735 69.8673 79.7982 71.9961C75.7838 74.125 71.2828 75.1894 66.2952 75.1894ZM66.2952 61.6864C69.2756 61.6864 71.7998 60.5916 73.8679 58.4019C75.9967 56.2122 77.0611 53.0797 77.0611 49.0045C77.0611 44.9293 76.0271 41.7968 73.9591 39.6071C71.9519 37.4175 69.4581 36.3226 66.4777 36.3226C63.4365 36.3226 60.9123 37.4175 58.9051 39.6071C56.8979 41.736 55.8942 44.8685 55.8942 49.0045C55.8942 53.0797 56.8674 56.2122 58.8138 58.4019C60.821 60.5916 63.3148 61.6864 66.2952 61.6864Z" fill="white"/>
<path d="M100.392 49.0045C100.392 43.7128 101.456 39.0901 103.585 35.1366C105.775 31.183 108.786 28.1418 112.618 26.0129C116.51 23.884 120.951 22.8196 125.938 22.8196C132.325 22.8196 137.647 24.4923 141.905 27.8376C146.223 31.183 149.052 35.8969 150.39 41.9793H133.785C132.386 38.0865 129.679 36.1402 125.665 36.1402C122.806 36.1402 120.525 37.2654 118.822 39.5159C117.119 41.7056 116.267 44.8685 116.267 49.0045C116.267 53.1406 117.119 56.3338 118.822 58.5844C120.525 60.774 122.806 61.8689 125.665 61.8689C129.679 61.8689 132.386 59.9225 133.785 56.0297H150.39C149.052 61.9905 146.223 66.674 141.905 70.0802C137.586 73.4863 132.264 75.1894 125.938 75.1894C120.951 75.1894 116.51 74.125 112.618 71.9961C108.786 69.8673 105.775 66.8261 103.585 62.8725C101.456 58.9189 100.392 54.2962 100.392 49.0045Z" fill="white"/>
<path d="M168.132 38.6948C162.415 35.6536 159.556 30.8788 159.556 24.3706C159.556 21.0861 160.408 18.1057 162.111 15.4295C163.814 12.6924 166.399 10.5331 169.866 8.95166C173.333 7.3094 177.591 6.48827 182.639 6.48827C187.687 6.48827 191.915 7.3094 195.321 8.95166C198.788 10.5331 201.373 12.6924 203.076 15.4295C204.779 18.1057 205.631 21.0861 205.631 24.3706C205.631 27.6552 204.84 30.5139 203.258 32.9469C201.738 35.3799 199.67 37.2958 197.054 38.6948C200.339 40.2762 202.863 42.4659 204.627 45.2638C206.391 48.0009 207.273 51.2246 207.273 54.9349C207.273 59.2534 206.178 62.9941 203.988 66.157C201.799 69.259 198.818 71.6312 195.047 73.2734C191.337 74.9157 187.201 75.7368 182.639 75.7368C178.077 75.7368 173.911 74.9157 170.14 73.2734C166.429 71.6312 163.479 69.259 161.29 66.157C159.1 62.9941 158.005 59.2534 158.005 54.9349C158.005 51.1638 158.887 47.9097 160.651 45.1726C162.415 42.3747 164.909 40.2154 168.132 38.6948ZM190.485 26.7428C190.485 24.249 189.755 22.333 188.296 20.9949C186.897 19.5959 185.011 18.8964 182.639 18.8964C180.267 18.8964 178.351 19.5959 176.891 20.9949C175.492 22.3938 174.793 24.3402 174.793 26.834C174.793 29.2062 175.522 31.0917 176.982 32.4907C178.442 33.8288 180.328 34.4979 182.639 34.4979C184.95 34.4979 186.836 33.7984 188.296 32.3995C189.755 31.0005 190.485 29.1149 190.485 26.7428ZM182.639 45.4463C179.78 45.4463 177.469 46.237 175.705 47.8184C173.941 49.339 173.059 51.4679 173.059 54.205C173.059 56.7596 173.911 58.8581 175.614 60.5003C177.378 62.1426 179.719 62.9637 182.639 62.9637C185.559 62.9637 187.839 62.1426 189.482 60.5003C191.185 58.8581 192.036 56.7596 192.036 54.205C192.036 51.5287 191.154 49.3999 189.39 47.8184C187.687 46.237 185.437 45.4463 182.639 45.4463Z" fill="white"/>
<path d="M267.215 36.5527C266.449 35.7875 265.928 34.8124 265.716 33.7507C265.505 32.689 265.613 31.5884 266.027 30.5882C266.441 29.588 267.143 28.7331 268.043 28.1316C268.943 27.5301 270.001 27.2091 271.083 27.2091C272.166 27.2091 273.224 27.5301 274.124 28.1316C275.024 28.7331 275.726 29.588 276.14 30.5882C276.554 31.5884 276.662 32.689 276.451 33.7507C276.239 34.8124 275.718 35.7875 274.952 36.5527C274.444 37.0612 273.841 37.4646 273.177 37.7398C272.514 38.0151 271.802 38.1567 271.083 38.1567C270.365 38.1567 269.653 38.0151 268.99 37.7398C268.326 37.4646 267.723 37.0612 267.215 36.5527Z" fill="white"/>
<path fill-rule="evenodd" clip-rule="evenodd" d="M303.913 41.1128C303.913 63.6563 285.638 81.9314 263.094 81.9314C240.551 81.9314 222.275 63.6563 222.275 41.1128C222.275 18.5693 240.551 0.294189 263.094 0.294189C285.638 0.294189 303.913 18.5693 303.913 41.1128ZM288.144 16.0679C288.124 15.9671 288.074 15.8742 288.003 15.8003C287.931 15.7264 287.84 15.6745 287.74 15.6506C281.062 14.0179 265.632 19.836 257.273 28.1921C255.782 29.671 254.423 31.2771 253.211 32.9921C250.633 32.764 248.055 32.9545 245.858 33.9122C239.659 36.6405 237.854 43.7595 237.351 46.8219C237.323 46.9895 237.334 47.1615 237.383 47.3243C237.432 47.487 237.518 47.6361 237.635 47.7599C237.751 47.8837 237.895 47.9787 238.055 48.0375C238.214 48.0963 238.385 48.1173 238.554 48.0989L248.509 47.0009C248.516 47.7514 248.561 48.5011 248.644 49.247C248.695 49.765 248.924 50.2491 249.294 50.6152L253.149 54.4608C253.516 54.8302 253.999 55.0601 254.517 55.1107C255.259 55.1937 256.004 55.239 256.751 55.2464L255.659 65.1884C255.64 65.3574 255.662 65.5282 255.72 65.6877C255.779 65.8471 255.874 65.9907 255.998 66.1072C256.122 66.2237 256.271 66.31 256.433 66.3593C256.596 66.4086 256.768 66.4195 256.936 66.3912C259.992 65.901 267.124 64.0961 269.836 57.8972C270.794 55.7002 270.99 53.1349 270.769 50.5696C272.488 49.3574 274.098 47.9978 275.581 46.5061C283.967 38.1626 289.752 23.0775 288.144 16.0679ZM250.054 58.3248C251.26 58.1162 252.262 57.8722 252.887 57.2463C253.216 56.9031 253.796 57.187 253.754 57.6635C253.571 59.1812 252.883 60.5933 251.801 61.6723C249.12 64.355 239.16 64.6081 239.16 64.6081C239.16 64.6081 239.413 54.6536 242.093 51.9708C243.173 50.8915 244.583 50.2044 246.099 50.0189C246.203 50.0048 246.308 50.0237 246.401 50.073C246.493 50.1222 246.567 50.1994 246.614 50.2934C246.66 50.3874 246.675 50.4936 246.657 50.5968C246.639 50.7 246.59 50.795 246.515 50.8683C246.173 51.2104 245.623 52.6663 245.438 53.705C244.951 56.4447 247.344 58.7866 250.054 58.3248Z" fill="white"/>
<path d="M1.87939 123.871C1.87939 121.228 2.48823 118.858 3.7059 116.759C4.94948 114.661 6.62054 113.028 8.71908 111.863C10.8435 110.671 13.1623 110.075 15.6754 110.075C18.5511 110.075 21.1031 110.787 23.3311 112.212C25.5851 113.611 27.2173 115.606 28.2277 118.197H22.9037C22.2041 116.772 21.2326 115.71 19.989 115.01C18.7454 114.311 17.3076 113.961 15.6754 113.961C13.8877 113.961 12.2944 114.363 10.8953 115.166C9.49632 115.969 8.39523 117.122 7.59209 118.624C6.81485 120.127 6.42623 121.876 6.42623 123.871C6.42623 125.866 6.81485 127.615 7.59209 129.117C8.39523 130.62 9.49632 131.786 10.8953 132.615C12.2944 133.418 13.8877 133.819 15.6754 133.819C17.3076 133.819 18.7454 133.47 19.989 132.77C21.2326 132.071 22.2041 131.008 22.9037 129.584H28.2277C27.2173 132.174 25.5851 134.169 23.3311 135.568C21.1031 136.967 18.5511 137.667 15.6754 137.667C13.1364 137.667 10.8176 137.084 8.71908 135.918C6.62054 134.726 4.94948 133.081 3.7059 130.983C2.48823 128.884 1.87939 126.513 1.87939 123.871Z" fill="white"/>
<path d="M72.4307 131.915H61.1219L59.1788 137.434H54.5542L64.2308 110.386H69.3606L79.0372 137.434H74.3738L72.4307 131.915ZM71.1871 128.301L66.7957 115.749L62.3654 128.301H71.1871Z" fill="white"/>
<path d="M120.008 137.434L113.79 126.63H110.409V137.434H105.979V110.425H115.306C117.378 110.425 119.127 110.787 120.552 111.513C122.003 112.238 123.078 113.21 123.778 114.427C124.503 115.645 124.866 117.005 124.866 118.508C124.866 120.27 124.347 121.876 123.311 123.327C122.301 124.752 120.733 125.723 118.609 126.241L125.293 137.434H120.008ZM110.409 123.094H115.306C116.964 123.094 118.207 122.679 119.036 121.85C119.891 121.021 120.319 119.907 120.319 118.508C120.319 117.109 119.904 116.021 119.075 115.244C118.246 114.44 116.99 114.039 115.306 114.039H110.409V123.094Z" fill="white"/>
<path d="M157.698 114V121.928H167.024V125.542H157.698V133.819H168.19V137.434H153.267V110.386H168.19V114H157.698Z" fill="white"/>
<path d="M200.811 114V121.928H210.138V125.542H200.811V133.819H211.304V137.434H196.381V110.386H211.304V114H200.811Z" fill="white"/>
<path d="M253.524 137.434L247.306 126.63H243.925V137.434H239.495V110.425H248.822C250.895 110.425 252.643 110.787 254.068 111.513C255.519 112.238 256.594 113.21 257.294 114.427C258.019 115.645 258.382 117.005 258.382 118.508C258.382 120.27 257.864 121.876 256.827 123.327C255.817 124.752 254.25 125.723 252.125 126.241L258.809 137.434H253.524ZM243.925 123.094H248.822C250.48 123.094 251.724 122.679 252.553 121.85C253.408 121.021 253.835 119.907 253.835 118.508C253.835 117.109 253.421 116.021 252.592 115.244C251.762 114.44 250.506 114.039 248.822 114.039H243.925V123.094Z" fill="white"/>
<path d="M295.683 137.706C293.869 137.706 292.237 137.395 290.786 136.773C289.336 136.125 288.196 135.219 287.367 134.053C286.537 132.887 286.123 131.527 286.123 129.972H290.864C290.968 131.138 291.421 132.097 292.224 132.848C293.053 133.599 294.206 133.975 295.683 133.975C297.212 133.975 298.403 133.612 299.258 132.887C300.113 132.135 300.541 131.177 300.541 130.011C300.541 129.104 300.269 128.366 299.725 127.796C299.206 127.226 298.546 126.785 297.743 126.475C296.965 126.164 295.877 125.827 294.478 125.464C292.716 124.998 291.279 124.532 290.165 124.065C289.076 123.573 288.144 122.822 287.367 121.811C286.589 120.801 286.201 119.454 286.201 117.77C286.201 116.215 286.589 114.855 287.367 113.689C288.144 112.523 289.232 111.629 290.631 111.008C292.03 110.386 293.649 110.075 295.489 110.075C298.105 110.075 300.243 110.736 301.901 112.057C303.585 113.352 304.518 115.14 304.699 117.42H299.802C299.725 116.435 299.258 115.593 298.403 114.894C297.548 114.194 296.421 113.844 295.022 113.844C293.753 113.844 292.716 114.168 291.913 114.816C291.11 115.464 290.709 116.396 290.709 117.614C290.709 118.443 290.955 119.13 291.447 119.674C291.965 120.192 292.613 120.606 293.39 120.917C294.167 121.228 295.23 121.565 296.577 121.928C298.364 122.42 299.815 122.912 300.929 123.405C302.069 123.897 303.028 124.661 303.805 125.697C304.608 126.708 305.01 128.068 305.01 129.778C305.01 131.151 304.634 132.446 303.883 133.664C303.157 134.882 302.082 135.866 300.657 136.618C299.258 137.343 297.6 137.706 295.683 137.706Z" fill="white"/>
</svg>
